<svg width="32" height="32" viewBox="0 0 32 32" fill="none" xmlns="http://www.w3.org/2000/svg">
<path d="M11 25.9843C8.43333 26.1867 6.33333 24.3822 6.33333 23.4546V18.9013C6.33333 17.0799 4.77778 16.4559 4 16.3716V15.6127C5.86667 15.6127 6.33333 13.7576 6.33333 12.8301C6.33333 12.4085 6.33333 11.0087 6.33333 8.78262C6.33333 6.55652 9.93056 6 11 6V12.5614H21M21 5C22.0694 5 25.6667 5.55652 25.6667 7.78262V11.8301C25.6667 12.7576 26.1333 14.6127 28 14.6127V15.3716C27.2222 15.4559 25.6667 16.0799 25.6667 17.9013V22.4546C25.6667 23.3822 23.5667 25.1867 21 24.9843M11.5 16H17.9595C19.6163 16 20.9595 17.3431 20.9595 19V24.9474" stroke="#121212" stroke-linecap="round"/>
</svg>
